<?xml version="1.0" encoding="UTF-8" standalone="no"?>
<!DOCTYPE svg PUBLIC "-//W3C//DTD SVG 1.1//EN" "http://www.w3.org/Graphics/SVG/1.1/DTD/svg11.dtd">
<svg xmlns="http://www.w3.org/2000/svg" version="1.1" viewBox="0.00 0.00 1000.00 1000.00">
<g stroke-width="2.00" fill="none" stroke-linecap="butt">
<path stroke="#807e7e" vector-effect="non-scaling-stroke" d="
  M 515.34 484.52
  Q 526.74 484.45 538.16 484.51
  C 546.71 484.56 540.01 473.13 538.28 469.62
  A 3.36 3.35 -13.1 0 0 535.27 467.75
  L 522.03 467.75
  Q 521.45 467.75 521.66 467.21
  L 535.84 431.57
  Q 536.13 430.84 536.42 431.57
  L 564.08 500.41
  A 3.73 3.73 0.0 0 0 567.54 502.75
  L 578.77 502.75
  A 2.83 2.83 0.0 0 0 581.39 498.86
  Q 566.40 461.76 551.43 425.01
  Q 547.86 416.25 545.39 413.72
  C 538.92 407.11 526.85 409.52 523.18 418.51
  Q 499.19 477.34 491.15 497.92
  Q 490.62 499.29 491.17 501.56
  Q 491.29 502.03 491.73 502.23
  C 494.60 503.46 501.21 502.73 504.52 502.69
  Q 507.52 502.66 508.86 499.33
  Q 511.74 492.16 514.63 485.00
  Q 514.83 484.53 515.34 484.52"
/>
<path stroke="#807e7e" vector-effect="non-scaling-stroke" d="
  M 358.00 464.76
  Q 377.22 464.74 396.44 464.70
  C 409.51 464.66 414.98 455.54 416.19 443.42
  C 417.55 429.63 415.80 413.03 398.35 411.35
  C 385.52 410.12 368.28 410.97 345.06 411.00
  C 338.87 411.01 340.73 422.82 341.77 426.09
  A 2.05 2.05 0.0 0 0 343.72 427.51
  Q 367.92 427.49 392.26 427.45
  C 400.30 427.43 400.98 436.07 399.75 442.27
  C 398.86 446.74 396.44 448.34 391.81 448.38
  Q 367.71 448.63 344.36 448.46
  A 3.32 3.32 0.0 0 0 341.01 451.78
  L 341.01 499.50
  A 3.25 3.24 90.0 0 0 344.25 502.75
  L 353.99 502.75
  A 3.49 3.49 0.0 0 0 357.48 499.26
  L 357.51 465.25
  Q 357.51 464.76 358.00 464.76"
/>
<path stroke="#807e7e" vector-effect="non-scaling-stroke" d="
  M 432.44 497.06
  C 439.86 502.90 446.19 502.30 457.78 502.50
  Q 472.92 502.75 487.62 502.63
  A 2.91 2.90 -0.4 0 0 490.50 499.72
  L 490.49 489.69
  Q 490.49 486.02 486.82 486.01
  Q 470.99 485.97 454.73 486.01
  C 443.25 486.03 440.27 481.86 440.09 470.75
  Q 439.66 444.95 439.95 419.16
  C 440.00 414.87 440.40 410.97 435.33 410.93
  Q 430.52 410.88 426.16 411.30
  A 2.92 2.91 -2.6 0 0 423.52 414.19
  Q 423.44 441.31 423.53 468.48
  C 423.57 477.91 424.39 490.73 432.44 497.06"
/>
<path stroke="#807e7e" vector-effect="non-scaling-stroke" d="
  M 606.10 457.09
  Q 594.10 435.22 582.18 413.31
  C 580.16 409.61 567.97 410.97 564.89 411.46
  A 1.18 1.18 0.0 0 0 564.04 413.19
  Q 580.24 442.80 596.71 472.31
  C 600.59 479.25 594.98 498.10 599.62 502.47
  A 0.73 0.72 53.7 0 0 600.12 502.67
  L 612.12 502.67
  A 0.84 0.80 -63.8 0 0 612.64 502.48
  C 617.18 498.50 611.74 479.22 615.22 472.99
  Q 631.84 443.27 648.29 413.72
  A 1.59 1.58 17.9 0 0 647.09 411.38
  Q 640.31 410.58 633.49 411.26
  A 3.32 3.31 11.5 0 0 630.90 412.97
  L 606.62 457.09
  Q 606.36 457.56 606.10 457.09"
/>
<path stroke="#807e7e" vector-effect="non-scaling-stroke" d="
  M 374.70 615.72
  Q 373.77 613.59 372.63 611.59
  Q 364.47 597.31 356.00 583.18
  Q 355.73 582.73 356.24 582.60
  Q 367.62 579.73 370.93 569.94
  C 373.52 562.29 373.60 548.94 370.44 540.82
  Q 365.89 529.10 352.24 529.08
  Q 325.82 529.05 300.13 529.07
  A 2.85 2.85 0.0 0 0 297.28 531.92
  L 297.28 542.82
  A 2.69 2.69 0.0 0 0 299.98 545.51
  Q 324.13 545.47 348.69 545.52
  C 359.32 545.54 358.84 566.28 349.21 566.38
  Q 324.52 566.62 300.38 566.46
  A 3.11 3.11 0.0 0 0 297.25 569.57
  L 297.25 617.70
  A 3.00 3.00 0.0 0 0 300.26 620.70
  L 310.26 620.68
  A 3.25 3.25 0.0 0 0 313.50 617.43
  L 313.50 583.54
  Q 313.50 583.08 313.96 583.07
  L 336.37 582.82
  A 1.06 1.05 74.5 0 1 337.30 583.35
  Q 347.27 601.10 357.40 618.83
  C 359.20 621.96 371.65 620.68 374.83 620.21
  Q 375.20 620.15 375.54 620.28
  C 378.70 621.47 385.48 620.76 388.86 620.74
  A 3.65 3.65 0.0 0 0 392.22 618.45
  L 398.37 603.06
  Q 398.59 602.54 399.15 602.53
  Q 410.83 602.42 422.50 602.53
  C 430.34 602.61 423.42 590.41 421.84 587.34
  A 2.94 2.94 0.0 0 0 419.23 585.75
  L 406.01 585.75
  A 0.54 0.54 0.0 0 1 405.51 585.01
  L 419.66 549.39
  A 0.26 0.26 0.0 0 1 420.14 549.38
  L 447.76 618.22
  A 4.04 4.04 0.0 0 0 451.51 620.75
  L 461.96 620.75
  Q 466.71 620.75 464.94 616.34
  Q 450.29 579.92 435.14 542.88
  C 432.02 535.25 429.89 529.53 422.30 528.05
  Q 417.69 527.14 413.63 529.33
  C 408.89 531.89 406.46 537.60 404.41 542.67
  Q 389.62 579.17 374.97 615.71
  Q 374.84 616.05 374.70 615.72"
/>
<path stroke="#807e7e" vector-effect="non-scaling-stroke" d="
  M 259.28 545.50
  L 287.02 545.50
  A 3.34 3.34 0.0 0 0 290.36 542.33
  Q 290.65 536.82 290.49 532.43
  C 290.37 529.18 286.87 528.93 284.25 528.95
  Q 250.23 529.24 216.22 528.96
  C 212.45 528.93 210.62 529.39 210.52 533.48
  Q 210.42 537.79 210.58 542.48
  A 3.13 3.13 0.0 0 0 213.71 545.50
  L 241.74 545.50
  Q 242.24 545.50 242.24 546.01
  Q 242.26 581.07 242.26 616.13
  C 242.26 619.01 242.96 620.40 245.94 620.59
  Q 252.13 620.99 256.75 620.38
  Q 257.29 620.31 257.62 619.88
  Q 258.77 618.41 258.76 616.25
  Q 258.66 591.73 258.79 545.99
  Q 258.79 545.50 259.28 545.50"
/>
<path stroke="#807e7e" vector-effect="non-scaling-stroke" d="
  M 466.88 591.93
  C 467.43 607.44 473.76 620.10 491.08 620.43
  Q 508.51 620.78 533.44 620.82
  Q 536.70 620.83 537.30 617.77
  C 537.88 614.76 539.19 604.21 533.91 604.24
  Q 514.30 604.34 494.69 604.14
  C 486.46 604.06 483.56 600.35 483.26 592.51
  Q 482.31 567.53 483.28 555.23
  C 484.08 545.08 491.55 545.60 500.40 545.54
  Q 517.10 545.44 533.79 545.52
  C 539.61 545.54 537.79 533.69 536.65 530.15
  Q 536.49 529.67 536.02 529.51
  Q 534.38 528.95 533.25 528.96
  Q 512.09 529.21 490.95 529.37
  C 472.91 529.52 467.16 543.56 466.74 559.25
  Q 466.30 575.60 466.88 591.93"
/>
<path stroke="#807e7e" vector-effect="non-scaling-stroke" d="
  M 561.75 582.80
  C 567.43 582.68 577.93 581.11 581.21 586.80
  Q 590.44 602.81 599.64 618.85
  C 601.32 621.77 612.94 620.77 616.00 620.41
  Q 616.56 620.35 616.82 619.85
  C 617.58 618.37 617.46 616.63 616.56 615.05
  Q 604.34 593.60 597.37 581.90
  Q 595.18 578.23 591.64 574.32
  Q 591.29 573.93 591.56 573.48
  Q 607.17 547.46 614.74 533.25
  C 618.09 526.96 602.05 529.18 599.97 529.47
  A 2.78 2.76 10.6 0 0 597.94 530.85
  Q 589.40 546.06 580.39 561.67
  C 576.93 567.66 567.98 566.53 561.77 566.14
  Q 561.30 566.11 561.30 565.65
  L 561.13 532.09
  A 2.85 2.85 0.0 0 0 558.61 529.28
  C 555.53 528.91 547.90 528.23 545.32 530.22
  Q 544.89 530.55 544.85 531.09
  C 544.32 538.72 544.68 545.94 544.56 555.50
  Q 544.36 571.37 544.54 614.46
  C 544.56 617.28 544.47 620.09 547.47 620.47
  Q 553.48 621.22 558.96 620.38
  A 2.57 2.56 85.7 0 0 561.14 617.84
  L 561.21 583.34
  Q 561.21 582.81 561.75 582.80"
/>
<path stroke="#807e7e" vector-effect="non-scaling-stroke" d="
  M 691.98 532.50
  A 3.46 3.46 0.0 0 0 688.52 529.04
  L 625.48 529.04
  A 3.46 3.46 0.0 0 0 622.02 532.50
  L 622.02 542.04
  A 3.46 3.46 0.0 0 0 625.48 545.50
  L 688.52 545.50
  A 3.46 3.46 0.0 0 0 691.98 542.04
  L 691.98 532.50"
/>
<path stroke="#807e7e" vector-effect="non-scaling-stroke" d="
  M 738.76 583.19
  Q 748.66 600.73 758.61 618.24
  C 760.81 622.11 771.68 620.83 775.65 620.43
  A 0.99 0.99 0.0 0 0 776.50 619.75
  Q 777.32 617.27 775.59 614.17
  Q 766.79 598.47 757.46 583.08
  Q 757.18 582.61 757.71 582.50
  Q 770.57 579.77 773.19 566.73
  C 776.40 550.75 774.74 529.81 753.40 529.33
  Q 727.86 528.76 702.31 529.15
  C 697.10 529.22 698.68 539.43 698.91 542.85
  A 2.83 2.82 -1.9 0 0 701.74 545.49
  Q 725.74 545.48 750.44 545.60
  C 758.23 545.64 758.65 554.69 757.33 560.58
  C 756.38 564.82 754.12 566.33 749.69 566.38
  Q 725.63 566.63 702.05 566.46
  A 3.25 3.25 0.0 0 0 698.77 569.69
  Q 698.69 593.51 698.79 617.19
  C 698.81 622.37 709.56 620.79 712.42 620.43
  A 2.98 2.98 0.0 0 0 715.04 617.47
  L 715.03 583.36
  Q 715.03 582.93 715.46 582.93
  L 738.00 582.75
  A 0.86 0.85 74.8 0 1 738.76 583.19"
/>
<path stroke="#807e7e" vector-effect="non-scaling-stroke" d="
  M 639.29 582.73
  L 689.16 582.70
  A 1.10 1.10 0.0 0 0 690.01 582.30
  C 692.29 579.46 691.62 572.28 691.22 568.80
  A 2.86 2.86 0.0 0 0 688.38 566.27
  Q 661.51 566.20 634.33 566.29
  C 627.26 566.31 622.25 566.88 622.05 575.00
  C 621.55 595.45 620.34 620.00 648.26 620.40
  Q 667.01 620.67 685.75 620.80
  Q 688.05 620.82 690.38 620.27
  Q 690.85 620.16 691.06 619.73
  C 692.66 616.54 692.08 610.85 691.84 607.09
  A 3.04 3.04 0.0 0 0 688.78 604.23
  Q 669.56 604.31 650.06 604.21
  C 636.13 604.13 638.58 592.63 638.79 583.21
  Q 638.80 582.73 639.29 582.73"
/>
</g>
<path fill="#000000" d="
  M 394.57 433.30
  A 1.09 1.08 -7.9 0 0 393.51 432.50
  Q 370.29 432.51 346.85 432.49
  C 338.36 432.48 336.70 429.62 335.91 421.95
  Q 335.39 417.01 336.52 412.50
  C 337.99 406.59 342.26 406.06 348.00 406.03
  Q 381.85 405.88 394.93 406.05
  C 404.36 406.17 412.70 409.34 417.50 417.81
  A 0.66 0.66 0.0 0 0 418.72 417.35
  C 416.29 405.57 427.52 405.71 435.10 406.04
  C 441.04 406.30 444.92 409.10 444.94 415.20
  Q 445.04 443.68 445.01 472.19
  C 445.00 476.39 446.24 480.99 451.63 480.99
  Q 468.69 481.00 485.75 480.97
  Q 488.79 480.97 491.34 482.18
  Q 491.98 482.48 492.24 481.83
  Q 504.34 451.52 516.48 421.10
  C 518.88 415.09 523.44 407.79 529.89 405.88
  C 542.33 402.20 550.31 408.95 554.71 419.80
  Q 570.09 457.76 585.58 495.68
  C 587.76 501.01 586.37 507.13 579.56 507.52
  C 570.00 508.07 562.57 510.03 558.54 500.02
  Q 547.69 473.06 536.96 446.05
  Q 536.69 445.38 536.74 444.96
  A 0.41 0.41 0.0 0 0 535.96 444.76
  L 529.07 462.09
  Q 528.84 462.69 529.48 462.72
  C 535.17 462.97 539.85 461.85 542.86 467.67
  C 556.70 494.42 534.79 489.52 518.77 489.50
  A 0.77 0.76 10.7 0 0 518.06 489.98
  C 516.45 494.04 513.86 502.79 510.76 505.59
  C 507.17 508.84 497.40 507.96 491.10 507.37
  C 489.04 507.18 486.77 507.75 484.96 507.75
  C 471.44 507.75 457.44 508.47 444.01 506.99
  C 418.21 504.16 417.93 477.91 418.57 458.50
  Q 418.63 456.49 419.04 455.68
  A 0.07 0.07 0.0 0 0 419.00 455.58
  Q 418.86 455.54 418.71 455.49
  Q 418.63 455.46 418.59 455.54
  Q 412.18 469.27 396.81 469.62
  Q 383.20 469.93 363.07 469.68
  Q 362.53 469.68 362.53 470.21
  Q 362.46 484.22 362.44 498.22
  C 362.43 505.18 358.46 507.82 352.03 507.75
  C 340.40 507.62 336.12 508.15 336.04 494.82
  Q 335.83 462.36 336.07 452.26
  C 336.23 445.33 340.57 443.49 347.01 443.50
  Q 370.04 443.52 393.00 443.49
  A 1.76 1.75 6.7 0 0 394.71 442.14
  Q 395.77 437.70 394.57 433.30
  Z
  M 515.34 484.52
  Q 526.74 484.45 538.16 484.51
  C 546.71 484.56 540.01 473.13 538.28 469.62
  A 3.36 3.35 -13.1 0 0 535.27 467.75
  L 522.03 467.75
  Q 521.45 467.75 521.66 467.21
  L 535.84 431.57
  Q 536.13 430.84 536.42 431.57
  L 564.08 500.41
  A 3.73 3.73 0.0 0 0 567.54 502.75
  L 578.77 502.75
  A 2.83 2.83 0.0 0 0 581.39 498.86
  Q 566.40 461.76 551.43 425.01
  Q 547.86 416.25 545.39 413.72
  C 538.92 407.11 526.85 409.52 523.18 418.51
  Q 499.19 477.34 491.15 497.92
  Q 490.62 499.29 491.17 501.56
  Q 491.29 502.03 491.73 502.23
  C 494.60 503.46 501.21 502.73 504.52 502.69
  Q 507.52 502.66 508.86 499.33
  Q 511.74 492.16 514.63 485.00
  Q 514.83 484.53 515.34 484.52
  Z
  M 358.00 464.76
  Q 377.22 464.74 396.44 464.70
  C 409.51 464.66 414.98 455.54 416.19 443.42
  C 417.55 429.63 415.80 413.03 398.35 411.35
  C 385.52 410.12 368.28 410.97 345.06 411.00
  C 338.87 411.01 340.73 422.82 341.77 426.09
  A 2.05 2.05 0.0 0 0 343.72 427.51
  Q 367.92 427.49 392.26 427.45
  C 400.30 427.43 400.98 436.07 399.75 442.27
  C 398.86 446.74 396.44 448.34 391.81 448.38
  Q 367.71 448.63 344.36 448.46
  A 3.32 3.32 0.0 0 0 341.01 451.78
  L 341.01 499.50
  A 3.25 3.24 90.0 0 0 344.25 502.75
  L 353.99 502.75
  A 3.49 3.49 0.0 0 0 357.48 499.26
  L 357.51 465.25
  Q 357.51 464.76 358.00 464.76
  Z
  M 432.44 497.06
  C 439.86 502.90 446.19 502.30 457.78 502.50
  Q 472.92 502.75 487.62 502.63
  A 2.91 2.90 -0.4 0 0 490.50 499.72
  L 490.49 489.69
  Q 490.49 486.02 486.82 486.01
  Q 470.99 485.97 454.73 486.01
  C 443.25 486.03 440.27 481.86 440.09 470.75
  Q 439.66 444.95 439.95 419.16
  C 440.00 414.87 440.40 410.97 435.33 410.93
  Q 430.52 410.88 426.16 411.30
  A 2.92 2.91 -2.6 0 0 423.52 414.19
  Q 423.44 441.31 423.53 468.48
  C 423.57 477.91 424.39 490.73 432.44 497.06
  Z"
/>
<path fill="#000000" d="
  M 606.75 446.83
  Q 621.52 419.12 626.93 409.93
  C 629.91 404.86 639.09 406.21 644.15 406.25
  C 654.50 406.33 655.05 411.95 650.71 419.72
  Q 635.22 447.49 619.68 475.29
  A 3.62 3.60 -30.8 0 0 619.22 477.09
  Q 619.35 488.29 619.14 500.05
  C 619.04 505.75 614.40 507.41 609.23 507.73
  C 599.78 508.31 593.16 508.16 593.04 496.93
  Q 592.94 486.81 593.02 477.09
  A 3.98 3.96 -59.2 0 0 592.53 475.14
  Q 576.23 445.73 560.10 416.35
  C 557.39 411.43 560.47 406.96 565.51 406.16
  Q 565.80 406.11 571.52 405.94
  C 578.76 405.72 583.60 405.44 587.26 412.19
  Q 596.66 429.55 606.19 446.83
  Q 606.48 447.34 606.75 446.83
  Z
  M 606.10 457.09
  Q 594.10 435.22 582.18 413.31
  C 580.16 409.61 567.97 410.97 564.89 411.46
  A 1.18 1.18 0.0 0 0 564.04 413.19
  Q 580.24 442.80 596.71 472.31
  C 600.59 479.25 594.98 498.10 599.62 502.47
  A 0.73 0.72 53.7 0 0 600.12 502.67
  L 612.12 502.67
  A 0.84 0.80 -63.8 0 0 612.64 502.48
  C 617.18 498.50 611.74 479.22 615.22 472.99
  Q 631.84 443.27 648.29 413.72
  A 1.59 1.58 17.9 0 0 647.09 411.38
  Q 640.31 410.58 633.49 411.26
  A 3.32 3.31 11.5 0 0 630.90 412.97
  L 606.62 457.09
  Q 606.36 457.56 606.10 457.09
  Z"
/>
<path fill="#fffcfc" d="
  M 514.63 485.00
  Q 511.74 492.16 508.86 499.33
  Q 507.52 502.66 504.52 502.69
  C 501.21 502.73 494.60 503.46 491.73 502.23
  Q 491.29 502.03 491.17 501.56
  Q 490.62 499.29 491.15 497.92
  Q 499.19 477.34 523.18 418.51
  C 526.85 409.52 538.92 407.11 545.39 413.72
  Q 547.86 416.25 551.43 425.01
  Q 566.40 461.76 581.39 498.86
  A 2.83 2.83 0.0 0 1 578.77 502.75
  L 567.54 502.75
  A 3.73 3.73 0.0 0 1 564.08 500.41
  L 536.42 431.57
  Q 536.13 430.84 535.84 431.57
  L 521.66 467.21
  Q 521.45 467.75 522.03 467.75
  L 535.27 467.75
  A 3.36 3.35 -13.1 0 1 538.28 469.62
  C 540.01 473.13 546.71 484.56 538.16 484.51
  Q 526.74 484.45 515.34 484.52
  Q 514.83 484.53 514.63 485.00
  Z"
/>
<path fill="#fffcfc" d="
  M 357.51 465.25
  L 357.48 499.26
  A 3.49 3.49 0.0 0 1 353.99 502.75
  L 344.25 502.75
  A 3.25 3.24 -90.0 0 1 341.01 499.50
  L 341.01 451.78
  A 3.32 3.32 0.0 0 1 344.36 448.46
  Q 367.71 448.63 391.81 448.38
  C 396.44 448.34 398.86 446.74 399.75 442.27
  C 400.98 436.07 400.30 427.43 392.26 427.45
  Q 367.92 427.49 343.72 427.51
  A 2.05 2.05 0.0 0 1 341.77 426.09
  C 340.73 422.82 338.87 411.01 345.06 411.00
  C 368.28 410.97 385.52 410.12 398.35 411.35
  C 415.80 413.03 417.55 429.63 416.19 443.42
  C 414.98 455.54 409.51 464.66 396.44 464.70
  Q 377.22 464.74 358.00 464.76
  Q 357.51 464.76 357.51 465.25
  Z"
/>
<path fill="#fffcfc" d="
  M 432.44 497.06
  C 424.39 490.73 423.57 477.91 423.53 468.48
  Q 423.44 441.31 423.52 414.19
  A 2.92 2.91 -2.6 0 1 426.16 411.30
  Q 430.52 410.88 435.33 410.93
  C 440.40 410.97 440.00 414.87 439.95 419.16
  Q 439.66 444.95 440.09 470.75
  C 440.27 481.86 443.25 486.03 454.73 486.01
  Q 470.99 485.97 486.82 486.01
  Q 490.49 486.02 490.49 489.69
  L 490.50 499.72
  A 2.91 2.90 -0.4 0 1 487.62 502.63
  Q 472.92 502.75 457.78 502.50
  C 446.19 502.30 439.86 502.90 432.44 497.06
  Z"
/>
<path fill="#fffcfc" d="
  M 606.62 457.09
  L 630.90 412.97
  A 3.32 3.31 11.5 0 1 633.49 411.26
  Q 640.31 410.58 647.09 411.38
  A 1.59 1.58 17.9 0 1 648.29 413.72
  Q 631.84 443.27 615.22 472.99
  C 611.74 479.22 617.18 498.50 612.64 502.48
  A 0.84 0.80 -63.8 0 1 612.12 502.67
  L 600.12 502.67
  A 0.72 0.72 0.0 0 1 599.62 502.47
  C 594.98 498.10 600.59 479.25 596.71 472.31
  Q 580.24 442.80 564.04 413.19
  A 1.18 1.18 0.0 0 1 564.89 411.46
  C 567.97 410.97 580.16 409.61 582.18 413.31
  Q 594.10 435.22 606.10 457.09
  Q 606.36 457.56 606.62 457.09
  Z"
/>
<path fill="#000000" d="
  M 294.19 547.73
  A 0.58 0.58 0.0 0 0 293.26 547.78
  Q 291.63 550.22 288.18 550.30
  Q 276.19 550.60 264.18 550.48
  Q 263.70 550.48 263.70 550.96
  Q 263.83 583.73 263.75 616.49
  C 263.74 623.53 259.40 625.40 252.98 625.76
  C 243.24 626.30 237.28 625.64 237.27 614.27
  Q 237.24 582.65 237.25 551.03
  Q 237.25 550.52 236.74 550.51
  Q 226.45 550.47 216.25 550.50
  C 204.54 550.53 205.32 543.10 205.33 533.73
  C 205.34 524.94 211.14 524.05 218.72 524.03
  Q 252.36 523.95 286.00 524.00
  Q 290.36 524.00 293.40 526.92
  Q 293.77 527.28 294.15 526.93
  Q 297.60 523.79 302.29 523.95
  C 314.00 524.37 323.81 523.85 330.43 524.08
  C 339.38 524.38 346.93 523.55 354.68 524.36
  C 376.63 526.64 379.54 547.40 376.95 565.26
  C 375.53 575.03 371.96 580.74 363.75 585.15
  A 0.58 0.57 -29.0 0 0 363.52 585.94
  L 373.78 603.53
  A 0.40 0.40 0.0 0 0 374.49 603.48
  Q 387.86 570.13 401.54 536.73
  Q 403.94 530.89 407.94 527.18
  C 414.79 520.85 427.06 521.85 433.18 528.58
  Q 436.35 532.06 438.61 537.67
  Q 450.08 566.07 461.38 594.33
  A 0.35 0.35 0.0 0 0 462.05 594.17
  Q 460.90 577.09 461.81 560.00
  C 462.68 543.91 465.84 530.74 481.86 525.87
  Q 486.95 524.32 499.89 524.26
  Q 521.63 524.16 532.25 523.95
  Q 537.39 523.85 540.83 527.02
  Q 541.23 527.39 541.60 527.00
  C 545.49 522.96 555.14 523.60 559.44 524.34
  C 565.07 525.30 566.02 529.76 565.99 535.07
  Q 565.92 547.86 566.12 560.66
  A 0.68 0.67 87.9 0 0 566.82 561.32
  L 573.91 561.06
  A 2.19 2.18 -76.3 0 0 575.72 559.95
  Q 584.52 544.44 593.45 528.69
  C 597.00 522.44 608.77 523.50 614.59 524.59
  C 616.28 524.91 617.20 525.85 618.30 527.07
  A 0.55 0.54 -44.0 0 0 619.10 527.08
  Q 621.96 524.04 626.00 524.02
  Q 643.61 523.95 686.50 524.02
  Q 691.84 524.03 695.08 527.11
  Q 695.45 527.45 695.78 527.07
  Q 698.42 524.02 702.56 524.01
  Q 725.66 523.96 748.75 524.02
  C 760.79 524.05 771.86 526.52 776.57 538.69
  C 781.25 550.77 781.47 578.83 765.98 584.76
  Q 764.47 585.34 765.33 586.71
  Q 773.72 600.01 780.40 613.00
  Q 782.13 616.37 781.86 618.81
  C 780.89 627.79 769.22 625.83 762.93 625.62
  C 758.17 625.45 756.01 623.67 753.59 619.43
  Q 744.70 603.92 736.07 588.52
  A 1.54 1.53 -14.6 0 0 734.73 587.74
  L 720.76 587.78
  A 0.69 0.69 0.0 0 0 720.07 588.46
  Q 719.97 602.46 719.91 616.74
  C 719.87 627.72 706.35 626.66 699.50 625.27
  Q 697.62 624.89 695.95 622.58
  Q 695.61 622.12 695.23 622.55
  Q 692.47 625.67 688.19 625.70
  Q 665.94 625.84 653.50 625.73
  C 644.60 625.66 635.43 624.97 628.06 619.12
  C 617.07 610.40 617.09 595.37 616.98 582.77
  C 616.87 571.41 617.16 561.26 631.25 561.26
  Q 660.13 561.24 689.00 561.26
  Q 692.36 561.26 694.72 564.59
  A 0.53 0.52 -41.2 0 0 695.53 564.64
  Q 698.39 561.50 700.75 561.50
  Q 725.56 561.50 750.65 561.50
  A 1.67 1.66 6.8 0 0 752.27 560.23
  Q 753.33 555.99 752.33 551.73
  A 1.61 1.60 83.4 0 0 750.77 550.49
  Q 726.61 550.50 702.25 550.55
  Q 698.22 550.56 695.80 547.53
  Q 695.45 547.10 695.07 547.50
  Q 692.28 550.48 689.50 550.49
  Q 659.22 550.51 628.93 550.50
  C 621.64 550.50 616.55 548.83 617.05 540.56
  A 0.31 0.31 0.0 0 0 616.47 540.39
  L 597.83 573.13
  Q 597.59 573.56 597.89 573.95
  Q 600.45 577.21 601.77 579.49
  Q 610.85 595.13 619.91 610.78
  Q 622.24 614.80 622.33 617.59
  C 622.66 627.19 611.73 625.74 605.23 625.94
  C 597.18 626.18 595.58 621.77 591.44 614.61
  Q 584.43 602.46 577.48 590.29
  C 575.39 586.63 570.37 587.61 566.68 587.68
  Q 566.13 587.70 566.12 588.25
  Q 565.82 609.18 566.01 615.72
  C 566.34 627.57 554.25 626.40 546.50 625.42
  Q 543.55 625.05 541.54 622.65
  Q 541.20 622.24 540.82 622.62
  Q 537.74 625.65 532.50 625.70
  Q 513.47 625.85 494.43 625.62
  C 484.68 625.50 477.39 623.61 470.59 617.21
  Q 470.06 616.72 470.09 617.44
  C 470.54 627.52 459.99 625.89 452.22 625.71
  C 444.78 625.53 443.99 622.09 441.29 615.42
  Q 430.71 589.27 420.37 563.25
  A 0.44 0.44 0.0 0 0 419.55 563.25
  L 412.70 580.34
  Q 412.52 580.79 413.00 580.78
  C 418.88 580.64 423.63 580.05 426.38 585.34
  C 430.96 594.13 436.60 607.46 420.19 607.49
  Q 411.33 607.51 402.46 607.50
  A 0.77 0.77 0.0 0 0 401.74 607.99
  Q 399.45 613.96 397.11 619.84
  Q 394.77 625.72 388.26 625.66
  Q 370.58 625.50 365.00 625.75
  C 359.34 626.00 355.45 625.43 352.57 620.41
  Q 343.39 604.38 334.35 588.26
  A 1.00 0.98 -14.2 0 0 333.48 587.75
  L 319.10 587.75
  A 0.59 0.59 0.0 0 0 318.51 588.34
  Q 318.51 602.60 318.39 616.71
  C 318.33 623.48 314.47 625.43 308.13 625.74
  C 298.46 626.22 292.36 625.97 292.30 614.58
  Q 292.17 593.54 292.29 572.48
  C 292.33 565.26 294.13 561.52 301.71 561.51
  Q 325.08 561.49 348.94 561.50
  A 2.06 2.06 0.0 0 0 350.97 559.78
  Q 351.66 555.72 350.89 551.70
  A 1.49 1.49 0.0 0 0 349.43 550.49
  Q 325.49 550.52 301.24 550.47
  C 298.29 550.47 295.95 549.88 294.19 547.73
  Z
  M 374.70 615.72
  Q 373.77 613.59 372.63 611.59
  Q 364.47 597.31 356.00 583.18
  Q 355.73 582.73 356.24 582.60
  Q 367.62 579.73 370.93 569.94
  C 373.52 562.29 373.60 548.94 370.44 540.82
  Q 365.89 529.10 352.24 529.08
  Q 325.82 529.05 300.13 529.07
  A 2.85 2.85 0.0 0 0 297.28 531.92
  L 297.28 542.82
  A 2.69 2.69 0.0 0 0 299.98 545.51
  Q 324.13 545.47 348.69 545.52
  C 359.32 545.54 358.84 566.28 349.21 566.38
  Q 324.52 566.62 300.38 566.46
  A 3.11 3.11 0.0 0 0 297.25 569.57
  L 297.25 617.70
  A 3.00 3.00 0.0 0 0 300.26 620.70
  L 310.26 620.68
  A 3.25 3.25 0.0 0 0 313.50 617.43
  L 313.50 583.54
  Q 313.50 583.08 313.96 583.07
  L 336.37 582.82
  A 1.06 1.05 74.5 0 1 337.30 583.35
  Q 347.27 601.10 357.40 618.83
  C 359.20 621.96 371.65 620.68 374.83 620.21
  Q 375.20 620.15 375.54 620.28
  C 378.70 621.47 385.48 620.76 388.86 620.74
  A 3.65 3.65 0.0 0 0 392.22 618.45
  L 398.37 603.06
  Q 398.59 602.54 399.15 602.53
  Q 410.83 602.42 422.50 602.53
  C 430.34 602.61 423.42 590.41 421.84 587.34
  A 2.94 2.94 0.0 0 0 419.23 585.75
  L 406.01 585.75
  A 0.54 0.54 0.0 0 1 405.51 585.01
  L 419.66 549.39
  A 0.26 0.26 0.0 0 1 420.14 549.38
  L 447.76 618.22
  A 4.04 4.04 0.0 0 0 451.51 620.75
  L 461.96 620.75
  Q 466.71 620.75 464.94 616.34
  Q 450.29 579.92 435.14 542.88
  C 432.02 535.25 429.89 529.53 422.30 528.05
  Q 417.69 527.14 413.63 529.33
  C 408.89 531.89 406.46 537.60 404.41 542.67
  Q 389.62 579.17 374.97 615.71
  Q 374.84 616.05 374.70 615.72
  Z
  M 259.28 545.50
  L 287.02 545.50
  A 3.34 3.34 0.0 0 0 290.36 542.33
  Q 290.65 536.82 290.49 532.43
  C 290.37 529.18 286.87 528.93 284.25 528.95
  Q 250.23 529.24 216.22 528.96
  C 212.45 528.93 210.62 529.39 210.52 533.48
  Q 210.42 537.79 210.58 542.48
  A 3.13 3.13 0.0 0 0 213.71 545.50
  L 241.74 545.50
  Q 242.24 545.50 242.24 546.01
  Q 242.26 581.07 242.26 616.13
  C 242.26 619.01 242.96 620.40 245.94 620.59
  Q 252.13 620.99 256.75 620.38
  Q 257.29 620.31 257.62 619.88
  Q 258.77 618.41 258.76 616.25
  Q 258.66 591.73 258.79 545.99
  Q 258.79 545.50 259.28 545.50
  Z
  M 466.88 591.93
  C 467.43 607.44 473.76 620.10 491.08 620.43
  Q 508.51 620.78 533.44 620.82
  Q 536.70 620.83 537.30 617.77
  C 537.88 614.76 539.19 604.21 533.91 604.24
  Q 514.30 604.34 494.69 604.14
  C 486.46 604.06 483.56 600.35 483.26 592.51
  Q 482.31 567.53 483.28 555.23
  C 484.08 545.08 491.55 545.60 500.40 545.54
  Q 517.10 545.44 533.79 545.52
  C 539.61 545.54 537.79 533.69 536.65 530.15
  Q 536.49 529.67 536.02 529.51
  Q 534.38 528.95 533.25 528.96
  Q 512.09 529.21 490.95 529.37
  C 472.91 529.52 467.16 543.56 466.74 559.25
  Q 466.30 575.60 466.88 591.93
  Z
  M 561.75 582.80
  C 567.43 582.68 577.93 581.11 581.21 586.80
  Q 590.44 602.81 599.64 618.85
  C 601.32 621.77 612.94 620.77 616.00 620.41
  Q 616.56 620.35 616.82 619.85
  C 617.58 618.37 617.46 616.63 616.56 615.05
  Q 604.34 593.60 597.37 581.90
  Q 595.18 578.23 591.64 574.32
  Q 591.29 573.93 591.56 573.48
  Q 607.17 547.46 614.74 533.25
  C 618.09 526.96 602.05 529.18 599.97 529.47
  A 2.78 2.76 10.6 0 0 597.94 530.85
  Q 589.40 546.06 580.39 561.67
  C 576.93 567.66 567.98 566.53 561.77 566.14
  Q 561.30 566.11 561.30 565.65
  L 561.13 532.09
  A 2.85 2.85 0.0 0 0 558.61 529.28
  C 555.53 528.91 547.90 528.23 545.32 530.22
  Q 544.89 530.55 544.85 531.09
  C 544.32 538.72 544.68 545.94 544.56 555.50
  Q 544.36 571.37 544.54 614.46
  C 544.56 617.28 544.47 620.09 547.47 620.47
  Q 553.48 621.22 558.96 620.38
  A 2.57 2.56 85.7 0 0 561.14 617.84
  L 561.21 583.34
  Q 561.21 582.81 561.75 582.80
  Z
  M 691.98 532.50
  A 3.46 3.46 0.0 0 0 688.52 529.04
  L 625.48 529.04
  A 3.46 3.46 0.0 0 0 622.02 532.50
  L 622.02 542.04
  A 3.46 3.46 0.0 0 0 625.48 545.50
  L 688.52 545.50
  A 3.46 3.46 0.0 0 0 691.98 542.04
  L 691.98 532.50
  Z
  M 738.76 583.19
  Q 748.66 600.73 758.61 618.24
  C 760.81 622.11 771.68 620.83 775.65 620.43
  A 0.99 0.99 0.0 0 0 776.50 619.75
  Q 777.32 617.27 775.59 614.17
  Q 766.79 598.47 757.46 583.08
  Q 757.18 582.61 757.71 582.50
  Q 770.57 579.77 773.19 566.73
  C 776.40 550.75 774.74 529.81 753.40 529.33
  Q 727.86 528.76 702.31 529.15
  C 697.10 529.22 698.68 539.43 698.91 542.85
  A 2.83 2.82 -1.9 0 0 701.74 545.49
  Q 725.74 545.48 750.44 545.60
  C 758.23 545.64 758.65 554.69 757.33 560.58
  C 756.38 564.82 754.12 566.33 749.69 566.38
  Q 725.63 566.63 702.05 566.46
  A 3.25 3.25 0.0 0 0 698.77 569.69
  Q 698.69 593.51 698.79 617.19
  C 698.81 622.37 709.56 620.79 712.42 620.43
  A 2.98 2.98 0.0 0 0 715.04 617.47
  L 715.03 583.36
  Q 715.03 582.93 715.46 582.93
  L 738.00 582.75
  A 0.86 0.85 74.8 0 1 738.76 583.19
  Z
  M 488.32 594.83
  C 488.46 598.68 492.28 599.24 495.25 599.24
  Q 514.65 599.24 534.04 599.27
  C 536.20 599.27 537.79 599.68 539.27 601.05
  A 0.14 0.14 0.0 0 0 539.51 600.95
  L 539.51 549.24
  Q 539.51 548.85 539.18 549.05
  Q 536.75 550.51 534.75 550.50
  Q 514.28 550.46 493.82 550.47
  Q 488.45 550.48 488.24 555.49
  Q 487.50 572.35 488.32 594.83
  Z
  M 639.29 582.73
  L 689.16 582.70
  A 1.10 1.10 0.0 0 0 690.01 582.30
  C 692.29 579.46 691.62 572.28 691.22 568.80
  A 2.86 2.86 0.0 0 0 688.38 566.27
  Q 661.51 566.20 634.33 566.29
  C 627.26 566.31 622.25 566.88 622.05 575.00
  C 621.55 595.45 620.34 620.00 648.26 620.40
  Q 667.01 620.67 685.75 620.80
  Q 688.05 620.82 690.38 620.27
  Q 690.85 620.16 691.06 619.73
  C 692.66 616.54 692.08 610.85 691.84 607.09
  A 3.04 3.04 0.0 0 0 688.78 604.23
  Q 669.56 604.31 650.06 604.21
  C 636.13 604.13 638.58 592.63 638.79 583.21
  Q 638.80 582.73 639.29 582.73
  Z
  M 643.60 587.84
  C 643.84 593.57 641.83 599.32 650.25 599.30
  Q 669.48 599.26 688.72 599.26
  C 690.54 599.26 691.68 599.74 693.18 600.65
  Q 693.78 601.02 693.78 600.31
  L 693.74 586.29
  Q 693.74 585.86 693.36 586.07
  Q 690.29 587.71 686.25 587.72
  C 672.14 587.76 658.06 587.86 643.99 587.45
  Q 643.59 587.43 643.60 587.84
  Z"
/>
<path fill="#fffcfc" d="
  M 374.97 615.71
  Q 389.62 579.17 404.41 542.67
  C 406.46 537.60 408.89 531.89 413.63 529.33
  Q 417.69 527.14 422.30 528.05
  C 429.89 529.53 432.02 535.25 435.14 542.88
  Q 450.29 579.92 464.94 616.34
  Q 466.71 620.75 461.96 620.75
  L 451.51 620.75
  A 4.04 4.04 0.0 0 1 447.76 618.22
  L 420.14 549.38
  A 0.26 0.26 0.0 0 0 419.66 549.39
  L 405.51 585.01
  A 0.54 0.54 0.0 0 0 406.01 585.75
  L 419.23 585.75
  A 2.94 2.94 0.0 0 1 421.84 587.34
  C 423.42 590.41 430.34 602.61 422.50 602.53
  Q 410.83 602.42 399.15 602.53
  Q 398.59 602.54 398.37 603.06
  L 392.22 618.45
  A 3.65 3.65 0.0 0 1 388.86 620.74
  C 385.48 620.76 378.70 621.47 375.54 620.28
  Q 375.20 620.15 374.83 620.21
  C 371.65 620.68 359.20 621.96 357.40 618.83
  Q 347.27 601.10 337.30 583.35
  A 1.06 1.05 74.5 0 0 336.37 582.82
  L 313.96 583.07
  Q 313.50 583.08 313.50 583.54
  L 313.50 617.43
  A 3.25 3.25 0.0 0 1 310.26 620.68
  L 300.26 620.70
  A 3.00 3.00 0.0 0 1 297.25 617.70
  L 297.25 569.57
  A 3.11 3.11 0.0 0 1 300.38 566.46
  Q 324.52 566.62 349.21 566.38
  C 358.84 566.28 359.32 545.54 348.69 545.52
  Q 324.13 545.47 299.98 545.51
  A 2.69 2.69 0.0 0 1 297.28 542.82
  L 297.28 531.92
  A 2.85 2.85 0.0 0 1 300.13 529.07
  Q 325.82 529.05 352.24 529.08
  Q 365.89 529.10 370.44 540.82
  C 373.60 548.94 373.52 562.29 370.93 569.94
  Q 367.62 579.73 356.24 582.60
  Q 355.73 582.73 356.00 583.18
  Q 364.47 597.31 372.63 611.59
  Q 373.77 613.59 374.70 615.72
  Q 374.84 616.05 374.97 615.71
  Z"
/>
<path fill="#fffcfc" d="
  M 258.79 545.99
  Q 258.66 591.73 258.76 616.25
  Q 258.77 618.41 257.62 619.88
  Q 257.29 620.31 256.75 620.38
  Q 252.13 620.99 245.94 620.59
  C 242.96 620.40 242.26 619.01 242.26 616.13
  Q 242.26 581.07 242.24 546.01
  Q 242.24 545.50 241.74 545.50
  L 213.71 545.50
  A 3.13 3.13 0.0 0 1 210.58 542.48
  Q 210.42 537.79 210.52 533.48
  C 210.62 529.39 212.45 528.93 216.22 528.96
  Q 250.23 529.24 284.25 528.95
  C 286.87 528.93 290.37 529.18 290.49 532.43
  Q 290.65 536.82 290.36 542.33
  A 3.34 3.34 0.0 0 1 287.02 545.50
  L 259.28 545.50
  Q 258.79 545.50 258.79 545.99
  Z"
/>
<path fill="#fffcfc" d="
  M 491.08 620.43
  C 473.76 620.10 467.43 607.44 466.88 591.93
  Q 466.30 575.60 466.74 559.25
  C 467.16 543.56 472.91 529.52 490.95 529.37
  Q 512.09 529.21 533.25 528.96
  Q 534.38 528.95 536.02 529.51
  Q 536.49 529.67 536.65 530.15
  C 537.79 533.69 539.61 545.54 533.79 545.52
  Q 517.10 545.44 500.40 545.54
  C 491.55 545.60 484.08 545.08 483.28 555.23
  Q 482.31 567.53 483.26 592.51
  C 483.56 600.35 486.46 604.06 494.69 604.14
  Q 514.30 604.34 533.91 604.24
  C 539.19 604.21 537.88 614.76 537.30 617.77
  Q 536.70 620.83 533.44 620.82
  Q 508.51 620.78 491.08 620.43
  Z"
/>
<path fill="#fffcfc" d="
  M 561.21 583.34
  L 561.14 617.84
  A 2.57 2.56 85.7 0 1 558.96 620.38
  Q 553.48 621.22 547.47 620.47
  C 544.47 620.09 544.56 617.28 544.54 614.46
  Q 544.36 571.37 544.56 555.50
  C 544.68 545.94 544.32 538.72 544.85 531.09
  Q 544.89 530.55 545.32 530.22
  C 547.90 528.23 555.53 528.91 558.61 529.28
  A 2.85 2.85 0.0 0 1 561.13 532.09
  L 561.30 565.65
  Q 561.30 566.11 561.77 566.14
  C 567.98 566.53 576.93 567.66 580.39 561.67
  Q 589.40 546.06 597.94 530.85
  A 2.78 2.76 10.6 0 1 599.97 529.47
  C 602.05 529.18 618.09 526.96 614.74 533.25
  Q 607.17 547.46 591.56 573.48
  Q 591.29 573.93 591.64 574.32
  Q 595.18 578.23 597.37 581.90
  Q 604.34 593.60 616.56 615.05
  C 617.46 616.63 617.58 618.37 616.82 619.85
  Q 616.56 620.35 616.00 620.41
  C 612.94 620.77 601.32 621.77 599.64 618.85
  Q 590.44 602.81 581.21 586.80
  C 577.93 581.11 567.43 582.68 561.75 582.80
  Q 561.21 582.81 561.21 583.34
  Z"
/>
<rect fill="#fffcfc" x="622.02" y="529.04" width="69.96" height="16.46" rx="3.46"/>
<path fill="#fffcfc" d="
  M 738.00 582.75
  L 715.46 582.93
  Q 715.03 582.93 715.03 583.36
  L 715.04 617.47
  A 2.98 2.98 0.0 0 1 712.42 620.43
  C 709.56 620.79 698.81 622.37 698.79 617.19
  Q 698.69 593.51 698.77 569.69
  A 3.25 3.25 0.0 0 1 702.05 566.46
  Q 725.63 566.63 749.69 566.38
  C 754.12 566.33 756.38 564.82 757.33 560.58
  C 758.65 554.69 758.23 545.64 750.44 545.60
  Q 725.74 545.48 701.74 545.49
  A 2.83 2.82 -1.9 0 1 698.91 542.85
  C 698.68 539.43 697.10 529.22 702.31 529.15
  Q 727.86 528.76 753.40 529.33
  C 774.74 529.81 776.40 550.75 773.19 566.73
  Q 770.57 579.77 757.71 582.50
  Q 757.18 582.61 757.46 583.08
  Q 766.79 598.47 775.59 614.17
  Q 777.32 617.27 776.50 619.75
  A 0.99 0.99 0.0 0 1 775.65 620.43
  C 771.68 620.83 760.81 622.11 758.61 618.24
  Q 748.66 600.73 738.76 583.19
  A 0.86 0.85 74.8 0 0 738.00 582.75
  Z"
/>
<path fill="#fffcfc" d="
  M 638.79 583.21
  C 638.58 592.63 636.13 604.13 650.06 604.21
  Q 669.56 604.31 688.78 604.23
  A 3.04 3.04 0.0 0 1 691.84 607.09
  C 692.08 610.85 692.66 616.54 691.06 619.73
  Q 690.85 620.16 690.38 620.27
  Q 688.05 620.82 685.75 620.80
  Q 667.01 620.67 648.26 620.40
  C 620.34 620.00 621.55 595.45 622.05 575.00
  C 622.25 566.88 627.26 566.31 634.33 566.29
  Q 661.51 566.20 688.38 566.27
  A 2.86 2.86 0.0 0 1 691.22 568.80
  C 691.62 572.28 692.29 579.46 690.01 582.30
  A 1.10 1.10 0.0 0 1 689.16 582.70
  L 639.29 582.73
  Q 638.80 582.73 638.79 583.21
  Z"
/>
</svg>
